<svg xmlns="http://www.w3.org/2000/svg" version="1.1" xmlns:xlink="http://www.w3.org/1999/xlink" xmlns:svgjs="http://svgjs.com/svgjs" height="72.6796875" width="318.76171875"><defs id="SvgjsDefs1009"></defs><g id="SvgjsG1010" rel="mainfill" name="main_text" xmlns:name="main_text" transform="translate(115,-168.12109375)" fill="#34404b"><path d="M0.08 168.12L33.86 168.12L40.22 169.00L42.86 169.96L45.97 171.56L48.01 173.16L49.69 175.04L50.57 176.60L51.25 178.28L51.97 181.19L52.13 184.63L51.89 186.71L50.37 191.19L48.89 193.31L45.89 196.30L42.34 198.70L38.10 200.46L38.26 200.66L43.14 201.78L49.05 204.26L52.57 206.74L54.25 208.62L55.85 211.82L56.65 214.61L57.01 217.81L56.93 222.41L56.41 225.49L55.53 228.17L54.37 230.61L50.93 234.32L48.77 235.68L42.78 238.12L33.78 239.84L0.28 240Q0 239.60 0 239.04L0.08 236.00L2.76 235.84L3.80 235.60L5.56 235.04L6.88 234.00L7.68 232.40L8.32 229.41L8.56 226.13L8.32 178.83L7.68 175.92L6.88 174.32L6.28 173.76L5.48 173.32L3.80 172.64L0 172.28L0 169.20L0.08 168.12M21.99 173.36L21.99 199.34L23.71 199.34L28.38 198.70L32.42 197.22L34.90 195.79L36.26 194.47L37.38 192.87L38.18 190.95L38.70 188.79L38.90 186.31L38.70 182.51L38.46 181.39L37.74 179.43L37.22 178.56L36.06 177.04L33.74 175.36L31.98 174.40L29.94 173.76L27.66 173.36L21.99 173.36M21.99 204.30L21.99 226.29L22.27 229.49L22.91 232.12L23.51 233.12L24.39 233.92L25.47 234.44L28.26 234.88L29.94 234.88L32.86 234.52L35.26 233.72L37.38 232.64L38.34 231.88L39.94 230.29L40.66 229.33L42.34 226.13L42.70 224.89L43.22 222.13L43.30 220.57L42.70 214.69L41.90 212.22L40.74 210.10L40.02 209.22L38.34 207.66L36.26 206.42L32.78 205.06L25.63 204.10L21.99 204.30ZM63.24 168.36L82.59 168.52L83.63 168.36L84.23 168.88L127.53 218.73L127.69 217.93L127.45 179.99L126.89 177.24L126.21 175.64L125.29 174.32L123.89 173.44L122.21 172.88L118.85 172.52L118.85 168.44L119.17 168.36L142.52 168.36L142.68 169.36L142.68 172.52L139.20 172.64L138.24 172.88L137.52 173.24L136.36 174.28L135.48 175.64L135.16 176.44L134.68 179.35L134.08 240.48Q133.72 240.76 133.20 240.80L128.77 240.80L128.21 240.28L78.40 182.55L79.27 229.09L79.83 231.92L80.43 233.52L80.95 234.16L81.51 234.68L86.99 236.00L87.11 236.92L87.11 240.04L66.16 239.84L63.40 240.04L63.24 239.84L63.24 236.00L66.00 235.76L67.76 235.32L69.20 234.52L70.24 233.36L71.04 231.84L71.48 230.09L71.84 183.27L71.68 178.99L71.12 176.24L70.76 175.44L69.72 174.28L68.20 173.44L66.52 172.96L63.24 172.52L63.24 168.36ZM146.84 168.12L180.62 168.12L186.97 169.00L189.61 169.96L192.73 171.56L194.77 173.16L196.45 175.04L197.33 176.60L198.01 178.28L198.73 181.19L198.89 184.63L198.65 186.71L197.13 191.19L195.65 193.31L192.65 196.30L189.09 198.70L184.85 200.46L185.01 200.66L189.89 201.78L195.81 204.26L199.33 206.74L201.01 208.62L202.60 211.82L203.40 214.61L203.76 217.81L203.68 222.41L203.16 225.49L202.28 228.17L201.13 230.61L197.69 234.32L195.53 235.68L189.53 238.12L180.54 239.84L147.04 240Q146.76 239.60 146.76 239.04L146.84 236.00L149.51 235.84L150.55 235.60L152.31 235.04L153.63 234.00L154.43 232.40L155.07 229.41L155.31 226.13L155.07 178.83L154.43 175.92L153.63 174.32L153.03 173.76L152.23 173.32L150.55 172.64L146.76 172.28L146.76 169.20L146.84 168.12M168.74 173.36L168.74 199.34L170.46 199.34L175.14 198.70L179.18 197.22L181.66 195.79L183.02 194.47L184.13 192.87L184.93 190.95L185.45 188.79L185.65 186.31L185.45 182.51L185.21 181.39L184.49 179.43L183.97 178.56L182.82 177.04L180.50 175.36L178.74 174.40L176.70 173.76L174.42 173.36L168.74 173.36M168.74 204.30L168.74 226.29L169.02 229.49L169.66 232.12L170.26 233.12L171.14 233.92L172.22 234.44L175.02 234.88L176.70 234.88L179.62 234.52L182.02 233.72L184.13 232.64L185.09 231.88L186.69 230.29L187.41 229.33L189.09 226.13L189.45 224.89L189.97 222.13L190.05 220.57L189.45 214.69L188.65 212.22L187.49 210.10L186.77 209.22L185.09 207.66L183.02 206.42L179.54 205.06L172.38 204.10L168.74 204.30Z" fill="#ffffff" style="fill: rgb(52, 64, 75);"></path></g><g id="SvgjsG1011" rel="mainfill" name="symbol" xmlns:name="symbol_mainfill" transform="translate(0,13.71484375) scale(1)" fill="#34404b"><path d="M79.763,19.713c0-2.32,2.605-4.137,5.932-4.137h3.358V3.317C89.053,1.485,87.568,0,85.736,0H54.297  c-1.832,0-3.317,1.485-3.317,3.317v23.88c0,0.142,0.012,0.28,0.028,0.417h28.755V19.713z" fill="#ffffff" style="fill: rgb(52, 64, 75);"></path><path d="M20.236,19.713v7.901h28.755c0.017-0.137,0.029-0.275,0.029-0.417V3.317C49.021,1.485,47.535,0,45.703,0H14.265  c-1.833,0-3.317,1.485-3.317,3.317v12.259h3.358C17.631,15.577,20.236,17.394,20.236,19.713z" fill="#ffffff" style="fill: rgb(52, 64, 75);"></path><path d="M14.305,17.457h-3.358H4.05c-2.387,0-4.05,1.189-4.05,2.256v23.282c0,1.066,1.664,2.256,4.05,2.256h6.231  c-0.351-0.675-0.555-1.49-0.555-2.377V31.872c0-1.476,0.562-2.752,1.434-3.513c0.539-0.471,1.195-0.745,1.912-0.745h5.283v-7.901  C18.355,18.646,16.692,17.457,14.305,17.457z" fill="#ffffff" style="fill: rgb(52, 64, 75);"></path><path d="M95.95,17.457h-6.896h-3.358c-2.387,0-4.051,1.189-4.051,2.256v7.901h3.324c1.259,0,2.331,0.845,2.903,2.119  c0.28,0.625,0.442,1.354,0.442,2.139v11.002c0,0.887-0.204,1.702-0.555,2.377h8.19c2.387,0,4.051-1.189,4.051-2.256V19.713  C100,18.646,98.336,17.457,95.95,17.457z" fill="#ffffff" style="fill: rgb(52, 64, 75);"></path><path d="M86.143,30.486c-0.287-0.616-0.746-0.991-1.175-0.991h-3.324h-0.94h-0.94H51.909h-3.817H20.236h-0.94h-0.94h-5.283  c-0.258,0-0.527,0.136-0.763,0.378c-0.398,0.408-0.702,1.12-0.702,1.999v11.002c0,1.401,0.772,2.377,1.465,2.377h1.233h3.535h1.462  h61.396h1.462h2.809c0.06,0,0.119-0.01,0.18-0.023c0.64-0.149,1.285-1.073,1.285-2.354V31.872  C86.433,31.338,86.321,30.867,86.143,30.486z" fill="#ffffff" style="fill: rgb(52, 64, 75);"></path></g></svg>